# xmcd CD database file
#
# Track frame offsets:
#	150
#	12159
#	27205
#	39633
#	54679
#	68472
#	82850
#	97673
#	110937
#	125175
#	139051
#	152119
#	205785
#	218575
#	233120
#	259424
#	274191
#
# Disc length: 3967 seconds
#
# Revision: 1
# Processed by: cddbd v1.5.1PL0 Copyright (c) Steve Scherf et al.
# Submitted via: CDex 1.51
#
DISCID=eb0f7d11
DTITLE=Lionel Hampton - Shufflin' at the Hollywood
DYEAR=1900
DGENRE=Jazz
TTITLE0=Dinah
TTITLE1=Vibraphone blues
TTITLE2=I'm in the mood for swing
TTITLE3=Shoe shiner's drag
TTITLE4=Shufflin' at the Hollywood
TTITLE5=Memories of you
TTITLE6=One sweet letter from you
TTITLE7=Blue because of you
TTITLE8=Flying home
TTITLE9=Million dollar smile
TTITLE10=Overtime
TTITLE11=Flying on a V-Disc
TTITLE12=I know that you know
TTITLE13=Hey, ba-ba-re-bop
TTITLE14=Air mail special
TTITLE15=Midnight sun
TTITLE16=Stardust
EXTD=
EXTT0=
EXTT1=
EXTT2=
EXTT3=
EXTT4=
EXTT5=
EXTT6=
EXTT7=
EXTT8=
EXTT9=
EXTT10=
EXTT11=
EXTT12=
EXTT13=
EXTT14=
EXTT15=
EXTT16=
PLAYORDER=
